<svg xmlns="http://www.w3.org/2000/svg" viewBox="0 0 90 90"><path d="M73.9,54.9c0,2.3-1.8,4.1-4.1,4.1l0,0c-2.3,0-4.1-1.8-4.1-4.1V37.1c0-2.3,1.8-4.1,4.1-4.1l0,0c2.3,0,4.1,1.8,4.1,4.1V54.9z M24.2,54.9c0,2.3-1.8,4.1-4.1,4.1l0,0c-2.3,0-4.1-1.8-4.1-4.1V37.1c0-2.3,1.8-4.1,4.1-4.1l0,0c2.3,0,4.1,1.8,4.1,4.1V54.9z M26,33.8v29c0,1.5,1.3,2.8,2.8,2.8h5.1v9.8c0,2.3,1.8,4.1,4.1,4.1c2.3,0,4.1-1.8,4.1-4.1v-9.8h6v9.8c0,2.3,1.8,4.1,4.1,4.1 c2.3,0,4.1-1.8,4.1-4.1v-9.8h5c1.6,0,2.8-1.3,2.8-2.8v-29C54.3,33.8,34.5,33.8,26,33.8z M54.2,17.1l3.2-5.6c0.2-0.3,0.1-0.7-0.2-0.9c-0.3-0.2-0.7-0.1-0.9,0.2l-3.3,5.6c-2.5-1.1-5.2-1.8-8.1-1.8v0 c-2.9,0-5.7,0.7-8.2,1.9L33.9,11c-0.2-0.3-0.6-0.4-0.9-0.3c-0.3,0.2-0.4,0.5-0.3,0.9l2.9,5.6c-5.3,3-9.1,8.4-9.8,14.8h38.4 C63.5,25.5,59.6,20,54.2,17.1z M36.3,25.2c-0.9,0-1.6-0.7-1.6-1.6c0-0.9,0.7-1.6,1.6-1.6c0.9,0,1.6,0.7,1.6,1.6 C37.9,24.5,37.2,25.2,36.3,25.2z M53.7,25.2c-0.9,0-1.6-0.7-1.6-1.6c0-0.9,0.7-1.6,1.6-1.6c0.9,0,1.6,0.7,1.6,1.6 C55.3,24.5,54.6,25.2,53.7,25.2z"/></svg>
