<svg xmlns="http://www.w3.org/2000/svg" viewBox="0 0 4496 5273"><defs><linearGradient id="linear-gradient" x1="3788.85" y1="-427.48" x2="3788.85" y2="-426.48" gradientTransform="translate(-17032435 170992.4) scale(4496 400)" gradientUnits="userSpaceOnUse"><stop offset="0" stop-color="#fff"/><stop offset="1" stop-color="#fff" stop-opacity="0"/></linearGradient><linearGradient id="linear-gradient-2" x1="3788.85" y1="-416.39" x2="3788.85" y2="-414.53" gradientTransform="matrix(4496, 0, 0, -400, -17032435, -161823.95)" gradientUnits="userSpaceOnUse"><stop offset="0" stop-color="#f4f5f3"/><stop offset="1" stop-color="#f4f5f3" stop-opacity="0"/></linearGradient></defs><rect fill="#f4f5f3" width="4496" height="5273"/><polygon fill="#fbfbfa" style="opacity:0.8;" points="2248 2389.98 2248 2389.98 1729.06 1194.99 2248 0 1156.12 0.01 637.07 1194.99 1156.12 2389.97 1156.19 2389.99 1156.12 2389.99 637.07 3584.97 1156.12 4779.94 2248 4779.95 1729.06 3584.97 2248 2389.98 2248 2389.98"/><polygon fill="#eeefed" style="opacity:0.8;" points="1480 1400 1479.94 1400 1480 1399.99 961.29 205.01 491.28 205.01 1010 1399.99 1010.01 1400 1010 1400 491.28 2594.98 491.28 2594.98 1010 3789.97 1010.04 3789.97 1010 3789.97 491.28 4984.96 961.29 4984.95 1480 3789.97 1479.93 3789.97 1480 3789.97 961.29 2594.98 961.23 2594.98 961.29 2594.98 1480 1400"/><rect fill="url(#linear-gradient)" style="opacity:0.8;" width="4496" height="400"/><polygon fill="#fbfbfa" style="opacity:0.8;" points="4366.93 493.01 4152.83 0 3060.91 0 3275.06 493.02 2756.01 1688 3275.06 2882.98 3275.12 2883 3275.06 2883 2756.01 4077.97 3275.06 5272.95 4366.94 5272.96 3848 4077.97 4366.94 2882.99 3848 1688 4366.93 493.04 4366.94 493.04 4366.94 493.02 4366.94 493.01 4366.93 493.01"/><rect fill="url(#linear-gradient-2)" y="3938.99" width="4496" height="1334"/></svg>