<svg version="1.1" id="Layer_1" xmlns="http://www.w3.org/2000/svg" xmlns:xlink="http://www.w3.org/1999/xlink" x="0px" y="0px"
	 viewBox="0 0 512 512" style="enable-background:new 0 0 512 512;" xml:space="preserve">
	<g style="fill:#ffffff;">
		<path d="M216,0h80c13.3,0,24,10.7,24,24v168h87.7c17.8,0,26.7,21.5,14.1,34.1L269.7,378.3c-7.5,7.5-19.8,7.5-27.3,0
	L90.1,226.1c-12.6-12.6-3.7-34.1,14.1-34.1H192V24C192,10.7,202.7,0,216,0z"/>
		<path d="M488,352H341.3l-49,49c-20.1,20.1-52.5,20.1-72.6,0l-49-49H24c-13.3,0-24,10.7-24,24v112c0,13.3,10.7,24,24,24
	h464c13.3,0,24-10.7,24-24V376C512,362.7,501.3,352,488,352z M368,484c-11,0-20-9-20-20s9-20,20-20s20,9,20,20S379,484,368,484z
	 M432,484c-11,0-20-9-20-20s9-20,20-20s20,9,20,20S443,484,432,484z"/>
	</g>
</svg>
