<svg xmlns="http://www.w3.org/2000/svg" viewBox="0 0 90 90"><path d="M73.7,21.7H36.6c-1-3-3.9-5.2-7.3-5.2s-6.2,2.2-7.3,5.2h-5.8c-1.3,0-2.4,1.1-2.4,2.4s1.1,2.4,2.4,2.4h5.8 c1,3,3.9,5.2,7.3,5.2s6.2-2.2,7.3-5.2h37.1c1.3,0,2.4-1.1,2.4-2.4S75,21.7,73.7,21.7z M29.4,26.9c-1.5,0-2.8-1.2-2.8-2.8 c0-1.5,1.2-2.8,2.8-2.8c1.5,0,2.8,1.2,2.8,2.8S30.9,26.9,29.4,26.9z M73.7,42.6h-5.8c-1-3-3.9-5.2-7.3-5.2c-3.4,0-6.2,2.2-7.3,5.2H16.3c-1.3,0-2.4,1.1-2.4,2.4c0,1.3,1.1,2.4,2.4,2.4h37.1 c1,3,3.9,5.2,7.3,5.2s6.2-2.2,7.3-5.2h5.8c1.3,0,2.4-1.1,2.4-2.4C76.1,43.7,75,42.6,73.7,42.6z M60.6,47.8c-1.5,0-2.8-1.2-2.8-2.8 s1.2-2.8,2.8-2.8s2.8,1.2,2.8,2.8S62.2,47.8,60.6,47.8z M73.7,63.4H47c-1-3-3.9-5.2-7.3-5.2s-6.2,2.2-7.3,5.2H16.3c-1.3,0-2.4,1.1-2.4,2.4c0,1.3,1.1,2.4,2.4,2.4h16.2 c1,3,3.9,5.2,7.3,5.2s6.2-2.2,7.3-5.2h26.7c1.3,0,2.4-1.1,2.4-2.4C76.1,64.5,75,63.4,73.7,63.4z M39.8,68.6c-1.5,0-2.8-1.2-2.8-2.8 c0-1.5,1.2-2.8,2.8-2.8c1.5,0,2.8,1.2,2.8,2.8C42.6,67.4,41.3,68.6,39.8,68.6z"/></svg>
