<?xml version="1.0" encoding="utf-8"?>
<!-- Generator: Adobe Illustrator 24.0.0, SVG Export Plug-In . SVG Version: 6.00 Build 0)  -->
<svg version="1.1" id="Layer_1" xmlns="http://www.w3.org/2000/svg" xmlns:xlink="http://www.w3.org/1999/xlink" x="0px" y="0px"
	 viewBox="0 0 25 25" style="enable-background:new 0 0 25 25;" xml:space="preserve">
<style type="text/css">
	.st0{fill:#24CD77;}
</style>
<path class="st0" d="M22.4,3.6c-0.2-0.2-0.7-0.4-1.1-0.4h-0.1c0,0-0.2,0-0.7,0c-0.7,0-1.9,0-3.2-0.4c-1.6-0.4-3.5-2.2-4-2.5
	c-0.2-0.1-0.6-0.2-0.8-0.2c-0.4,0-0.6,0.1-0.8,0.2c-0.1,0-2,2-3.8,2.5C6.6,3.1,5.3,3.2,4.6,3.2c-0.4,0-0.7,0-0.7,0H3.8
	c-0.5,0-1,0.1-1.2,0.4C2.2,3.9,2.1,4.3,2.1,4.8v3.8c0,14.4,9.7,16.2,10.2,16.3c0.1,0,0.2,0,0.2,0c0.1,0,0.2,0,0.2,0
	c0.4-0.1,10.2-1.9,10.2-16.3V4.8C22.9,4.3,22.8,3.9,22.4,3.6z M18.6,9.6l-7,7c0,0,0,0,0,0c0,0,0,0,0,0c-0.4,0.4-1,0.4-1.4,0
	l-3.7-3.7c-0.4-0.4-0.4-1,0-1.4c0.4-0.4,1-0.4,1.4,0l3.2,3.2l6.3-6.3c0.3-0.3,0.9-0.3,1.2,0C18.9,8.7,18.9,9.3,18.6,9.6z"/>
</svg>
