<svg  fill="#11c48e" xmlns="http://www.w3.org/2000/svg" viewBox="0 0 90 90"><path d="M77.8,42L67.5,31.7V19.8c0-2.1-1.7-3.9-3.9-3.9c-2.1,0-3.9,1.7-3.9,3.9v4.1l-7.7-7.7c-3.8-3.8-10.4-3.8-14.1,0L12.2,42c-1.5,1.5-1.5,4,0,5.5c1.5,1.5,4,1.5,5.5,0l25.7-25.7c0.8-0.8,2.3-0.8,3.1,0l25.7,25.7c0.8,0.8,1.8,1.1,2.7,1.1c1,0,2-0.4,2.8-1.1C79.3,45.9,79.3,43.5,77.8,42z M46.4,29.1c-0.7-0.7-2-0.7-2.7,0L21,51.7c-0.4,0.4-0.6,0.8-0.6,1.4v16.5c0,3.9,3.1,7,7,7h11.2V59.2h12.6v17.3h11.2c3.9,0,7-3.1,7-7V53.1c0-0.5-0.2-1-0.6-1.4L46.4,29.1z"/></svg>
