<?xml version="1.0" encoding="utf-8"?>
<!-- Generator: Adobe Illustrator 24.0.0, SVG Export Plug-In . SVG Version: 6.00 Build 0)  -->
<svg version="1.1" id="logo-34" xmlns="http://www.w3.org/2000/svg" xmlns:xlink="http://www.w3.org/1999/xlink" x="0px" y="0px"
	 viewBox="0 0 155 40" style="enable-background:new 0 0 155 40;" xml:space="preserve">
<style type="text/css">
	.st0{fill:#2DF8BB;}
</style>
<g>
	<path d="M115,20c0-9.4,0-14.1,2.9-17.1C120.9,0,125.6,0,135,0s14.1,0,17.1,2.9C155,5.9,155,10.6,155,20s0,14.1-2.9,17.1
		C149.1,40,144.4,40,135,40s-14.1,0-17.1-2.9C115,34.1,115,29.4,115,20z"/>
	<path class="st0" d="M139,26c0.6,0,1,0.5,0.9,1c-0.2,1-0.7,1.8-1.4,2.5c-0.9,0.9-2.2,1.5-3.5,1.5s-2.6-0.5-3.5-1.5
		c-0.7-0.7-1.2-1.6-1.4-2.5c-0.1-0.5,0.3-1,0.9-1H139z"/>
	<path class="st0" d="M141.1,17.8c-0.5,0.1-0.9,0.7-0.6,1.2c0.3,0.5,0.7,0.9,1.2,1.3c0.8,0.5,1.7,0.8,2.6,0.7
		c0.9-0.1,1.8-0.4,2.5-1.1c0.7-0.6,1.1-1.5,1.2-2.4s-0.1-1.8-0.6-2.6c-0.5-0.8-1.2-1.4-2.1-1.7c-0.9-0.3-1.8-0.3-2.7,0
		c-0.6,0.2-1,0.5-1.5,0.9c-0.4,0.4-0.2,1,0.3,1.3l0.5,0.3c0.8,0.4,0.6,1.6-0.2,1.8L141.1,17.8z"/>
	<path class="st0" d="M128.9,17.8c0.5,0.1,0.9,0.7,0.6,1.2c-0.3,0.5-0.7,0.9-1.2,1.3c-0.8,0.5-1.7,0.8-2.6,0.7
		c-0.9-0.1-1.8-0.4-2.5-1.1c-0.7-0.6-1.1-1.5-1.2-2.4c-0.1-0.9,0.1-1.8,0.6-2.6c0.5-0.8,1.2-1.4,2.1-1.7c0.9-0.3,1.8-0.3,2.7,0
		c0.6,0.2,1,0.5,1.5,0.9c0.4,0.4,0.2,1-0.3,1.3l-0.5,0.3c-0.8,0.4-0.6,1.6,0.2,1.8L128.9,17.8z"/>
</g>
<g>
	<path d="M12.3,17.5c0.5,0.4,0.8,1,1.1,1.6c0.3,0.6,0.4,1.3,0.4,2.2c0,0.9-0.1,1.7-0.4,2.3c-0.3,0.6-0.6,1.1-1.1,1.4
		c-0.4,0.3-0.9,0.6-1.4,0.7c-0.5,0.1-0.9,0.2-1.4,0.2c-0.6,0-1.1-0.1-1.7-0.3c-0.6-0.2-1.1-0.5-1.5-0.9c-0.5,1.6-1.2,2.8-2.2,3.6
		c-1,0.8-2,1.4-3.2,1.7v-3.6c0.5-0.1,0.9-0.3,1.3-0.5c0.4-0.2,0.7-0.5,1.1-1c0.3-0.4,0.6-1,0.9-1.7s0.4-1.6,0.5-2.7
		c0.2-1.4,0.6-2.5,1.2-3.2s1.6-1.1,2.9-1.1c0.7,0,1.3,0.1,1.9,0.3C11.3,16.7,11.8,17.1,12.3,17.5z M11,21c0-0.5-0.2-0.9-0.6-1.3
		C10,19.4,9.5,19.2,9,19.2c-0.4,0-0.7,0.1-1,0.4c-0.3,0.3-0.4,0.6-0.4,1c0,0.4,0.2,0.8,0.6,1.1c0.4,0.3,0.8,0.5,1.4,0.5
		c0.4,0,0.8-0.1,1.1-0.3S11,21.4,11,21z"/>
	<path d="M26.8,25.7L26.8,25.7c-0.4,0-0.8,0-1.3-0.1c-0.5,0-0.8-0.1-0.9-0.1c-0.4,0.9-1,1.7-1.9,2.3c-0.8,0.6-1.7,1-2.7,1.4
		s-1.8,0.5-2.7,0.7S15.8,30,15,30v-3.5c1,0,1.9-0.1,2.7-0.2c0.8-0.2,1.5-0.3,2.1-0.5c0.6-0.2,1-0.4,1.3-0.5c0.2-0.1,0.4-0.2,0.4-0.2
		c-1.7-0.2-3-0.7-3.9-1.6s-1.3-1.9-1.3-3.1c0-1.3,0.4-2.3,1.2-3.2c0.8-0.9,1.8-1.4,2.9-1.4c1.3,0,2.3,0.6,3.2,1.7
		c0.9,1.2,1.4,2.6,1.5,4.5c0.1,0,0.4,0,0.8,0c0.4,0,0.7,0,0.9,0h0.1V25.7z M22.1,21.8c-0.1-0.9-0.3-1.6-0.6-2.2
		c-0.3-0.5-0.7-0.8-1-0.8c-0.4,0-0.7,0.1-0.9,0.4c-0.3,0.3-0.4,0.6-0.4,1s0.3,0.7,0.9,1C20.6,21.6,21.3,21.8,22.1,21.8z"/>
	<path d="M50.4,25.7h-1c-0.8,0-1.4-0.1-1.9-0.4c-0.5-0.3-0.9-0.6-1.1-1c-0.2,0.4-0.7,0.8-1.3,1.1c-0.6,0.3-1.4,0.4-2.1,0.4
		c-0.7,0-1.3-0.1-1.8-0.4c-0.5-0.3-0.9-0.6-1.2-1c-0.3,0.4-0.7,0.8-1.3,1.1c-0.6,0.3-1.2,0.4-2,0.4c-0.7,0-1.3-0.1-1.8-0.4
		s-0.9-0.6-1.2-1c-0.4,0.5-0.8,0.8-1.4,1.1c-0.6,0.2-1.2,0.4-1.9,0.4H26v-3.6h4.3c0.6,0,1-0.2,1.4-0.6c0.3-0.4,0.5-0.9,0.5-1.5v-1.5
		H35V20c0,0.6,0.1,1.1,0.4,1.5c0.3,0.4,0.7,0.6,1.2,0.6c0.6,0,1-0.2,1.4-0.6s0.5-0.9,0.5-1.5v-1.5h2.8V20c0,0.6,0.1,1.1,0.4,1.5
		c0.3,0.4,0.7,0.6,1.2,0.6c0.6,0,1.1-0.2,1.4-0.7c0.4-0.4,0.6-1,0.6-1.7v-3h2.8v3c0,0.8,0.2,1.3,0.6,1.7c0.4,0.4,0.9,0.6,1.4,0.6
		h0.6V25.7z"/>
	<path d="M55.8,19.7c0,1.9-0.4,3.3-1.2,4.4c-0.8,1.1-1.9,1.6-3.2,1.6h-1.7v-3.6h1.2c0.6,0,1.1-0.2,1.5-0.6c0.4-0.4,0.6-1,0.6-1.8v-3
		h2.8V19.7z M53.5,28.7H52v-1.5h1.5V28.7z"/>
	<path d="M61.9,25.8h-2.8V10h2.8V25.8z"/>
	<path d="M75.5,25.7L75.5,25.7c-0.4,0-0.8,0-1.3-0.1c-0.5,0-0.8-0.1-0.9-0.1c-0.4,0.9-1,1.7-1.9,2.3c-0.8,0.6-1.7,1-2.7,1.4
		s-1.8,0.5-2.7,0.7C65.3,30,64.5,30,63.8,30v-3.5c1,0,1.9-0.1,2.7-0.2c0.8-0.2,1.5-0.3,2.1-0.5c0.6-0.2,1-0.4,1.3-0.5
		c0.2-0.1,0.4-0.2,0.4-0.2c-1.7-0.2-3-0.7-3.9-1.6c-0.9-0.9-1.3-1.9-1.3-3.1c0-1.3,0.4-2.3,1.2-3.2s1.8-1.4,2.9-1.4
		c1.3,0,2.3,0.6,3.2,1.7s1.4,2.6,1.5,4.5c0.1,0,0.4,0,0.8,0s0.7,0,0.9,0h0.1V25.7z M70.8,21.8c-0.1-0.9-0.3-1.6-0.6-2.2
		c-0.3-0.5-0.7-0.8-1-0.8c-0.4,0-0.7,0.1-0.9,0.4c-0.3,0.3-0.4,0.6-0.4,1s0.3,0.7,0.9,1C69.3,21.6,70,21.8,70.8,21.8z"/>
	<path d="M90.1,19.8l-4.6,2.6c-0.5,0.3-1,0.6-1.5,0.9c-0.5,0.3-1.2,0.7-2.1,1.1c-0.8,0.4-1.5,0.7-2.2,0.9c-0.7,0.3-1.3,0.4-2,0.4h-3
		v-3.6h3c1.2,0,2.2-0.1,3.2-0.4c0.9-0.3,2.1-0.8,3.6-1.6c-0.8-0.3-1.7-0.6-2.7-0.9c-1.1-0.2-2.1-0.3-3.2-0.3h-2.1v-3.1h2.2
		c1.2,0,2.4,0.2,3.7,0.6c1.3,0.4,2.9,1.2,4.7,2.2l2.9-1.5V19.8z M88.3,26.5h-1.5V25h1.5V26.5z"/>
	<path d="M102.8,25.7L102.8,25.7c-0.4,0-0.8,0-1.3-0.1c-0.5,0-0.8-0.1-0.9-0.1c-0.4,0.9-1,1.7-1.9,2.3c-0.8,0.6-1.7,1-2.7,1.4
		s-1.8,0.5-2.7,0.7C92.6,30,91.8,30,91.1,30v-3.5c1,0,1.9-0.1,2.7-0.2c0.8-0.2,1.5-0.3,2.1-0.5c0.6-0.2,1-0.4,1.3-0.5
		c0.2-0.1,0.4-0.2,0.4-0.2c-1.7-0.2-3-0.7-3.9-1.6c-0.9-0.9-1.3-1.9-1.3-3.1c0-1.3,0.4-2.3,1.2-3.2s1.8-1.4,2.9-1.4
		c1.3,0,2.3,0.6,3.2,1.7s1.4,2.6,1.5,4.5c0.1,0,0.4,0,0.8,0s0.7,0,0.9,0h0.1V25.7z M98.1,21.8c-0.1-0.9-0.3-1.6-0.6-2.2
		c-0.3-0.5-0.7-0.8-1-0.8c-0.4,0-0.7,0.1-0.9,0.4c-0.3,0.3-0.4,0.6-0.4,1s0.3,0.7,0.9,1C96.6,21.6,97.3,21.8,98.1,21.8z"/>
	<path d="M108.3,19.7c0,1.8-0.4,3.2-1.2,4.4c-0.8,1.1-1.9,1.7-3.3,1.7h-1.7v-3.6h1.2c0.3,0,0.6,0,0.8-0.1c0.3-0.1,0.5-0.2,0.7-0.4
		c0.2-0.2,0.4-0.5,0.5-0.7c0.1-0.3,0.2-0.6,0.2-1.1V10h2.8V19.7z"/>
</g>
</svg>
