<?xml version="1.0" encoding="utf-8"?>
<!-- Generator: Adobe Illustrator 24.0.0, SVG Export Plug-In . SVG Version: 6.00 Build 0)  -->
<svg version="1.1" id="logo-34" xmlns="http://www.w3.org/2000/svg" xmlns:xlink="http://www.w3.org/1999/xlink" x="0px" y="0px"
	 viewBox="0 0 90 90" style="enable-background:new 0 0 90 90;" xml:space="preserve">
<g>
	<path d="M255,116.7c0-9.4,0-14.1,2.9-17.1s7.6-2.9,17.1-2.9s14.1,0,17.1,2.9c2.9,2.9,2.9,7.6,2.9,17.1s0,14.1-2.9,17.1
		c-2.9,2.9-7.6,2.9-17.1,2.9s-14.1,0-17.1-2.9C255,130.8,255,126.1,255,116.7z"/>
	<path style="fill:#2DF8BB;" d="M279,122.7c0.6,0,1,0.5,0.9,1c-0.2,1-0.7,1.8-1.4,2.5c-0.9,0.9-2.2,1.5-3.5,1.5s-2.6-0.5-3.5-1.5
		c-0.7-0.7-1.2-1.6-1.4-2.5c-0.1-0.5,0.3-1,0.9-1H279z"/>
	<path style="fill:#2DF8BB;" d="M281.1,114.5c-0.5,0.1-0.9,0.7-0.6,1.2c0.3,0.5,0.7,0.9,1.2,1.3c0.8,0.5,1.7,0.8,2.6,0.7
		c0.9-0.1,1.8-0.4,2.5-1.1c0.7-0.6,1.1-1.5,1.2-2.4c0.1-0.9-0.1-1.8-0.6-2.6c-0.5-0.8-1.2-1.4-2.1-1.7s-1.8-0.3-2.7,0
		c-0.6,0.2-1,0.5-1.5,0.9c-0.4,0.4-0.2,1,0.3,1.3l0.5,0.3c0.8,0.4,0.6,1.6-0.2,1.8L281.1,114.5z"/>
	<path style="fill:#2DF8BB;" d="M268.9,114.5c0.5,0.1,0.9,0.7,0.6,1.2c-0.3,0.5-0.7,0.9-1.2,1.3c-0.8,0.5-1.7,0.8-2.6,0.7
		c-0.9-0.1-1.8-0.4-2.5-1.1c-0.7-0.6-1.1-1.5-1.2-2.4c-0.1-0.9,0.1-1.8,0.6-2.6c0.5-0.8,1.2-1.4,2.1-1.7c0.9-0.3,1.8-0.3,2.7,0
		c0.6,0.2,1,0.5,1.5,0.9c0.4,0.4,0.2,1-0.3,1.3l-0.5,0.3c-0.8,0.4-0.6,1.6,0.2,1.8L268.9,114.5z"/>
</g>
<g>
	<path d="M191.5,153.6h-3.6v16.2h9.9v-3.2h-6.3V153.6z"/>
	<path d="M198.2,164.3c0,3.5,2.3,5.7,5.8,5.7c3.5,0,5.8-2.3,5.8-5.7s-2.3-5.8-5.8-5.8C200.5,158.5,198.2,160.8,198.2,164.3z
		 M201.6,164.2c0-1.6,1-2.7,2.4-2.7c1.4,0,2.4,1.1,2.4,2.7c0,1.7-1,2.8-2.4,2.8C202.5,167,201.6,165.9,201.6,164.2z"/>
	<path d="M210.3,164.1c0,3.3,2.1,5.5,5.2,5.5c1.5,0,2.7-0.5,3.4-1.4v1.5c0,1.5-0.9,2.5-2.6,2.5c-1.5,0-2.5-0.7-2.6-1.9h-3.4
		c0.3,3,2.6,5,5.8,5c3.7,0,6.1-2.4,6.1-6.3v-10.2h-3l-0.2,1.1c-0.6-0.9-1.9-1.5-3.4-1.5C212.5,158.4,210.3,160.7,210.3,164.1z
		 M213.7,164c0-1.6,1-2.6,2.4-2.6c1.6,0,2.7,1,2.7,2.6s-1.1,2.7-2.7,2.7C214.8,166.7,213.7,165.6,213.7,164z"/>
	<path d="M223.2,164.3c0,3.5,2.3,5.7,5.8,5.7c3.5,0,5.8-2.3,5.8-5.7s-2.3-5.8-5.8-5.8C225.5,158.5,223.2,160.8,223.2,164.3z
		 M226.5,164.2c0-1.6,1-2.7,2.4-2.7c1.4,0,2.4,1.1,2.4,2.7c0,1.7-1,2.8-2.4,2.8C227.5,167,226.5,165.9,226.5,164.2z"/>
	<path d="M237.7,157.1c1,0,1.9-0.9,1.9-1.9c0-1.1-0.9-1.9-1.9-1.9c-1.1,0-1.9,0.8-1.9,1.9C235.7,156.3,236.6,157.1,237.7,157.1z
		 M236,169.7h3.4v-10.9H236V169.7z"/>
	<path d="M241.3,175h3.3v-6.3c0.6,0.8,2.1,1.4,3.6,1.4c3.3,0,5.2-2.5,5.1-5.9c-0.1-3.5-2.1-5.6-5.2-5.6c-1.6,0-3,0.7-3.6,1.7
		l-0.2-1.3h-3.1V175z M244.7,164.3c0-1.6,1.1-2.7,2.7-2.7c1.6,0,2.6,1.1,2.6,2.7c0,1.6-1,2.7-2.6,2.7
		C245.8,167,244.7,165.9,244.7,164.3z"/>
	<path d="M253.7,166.3c0.1,2.2,1.8,3.7,4.6,3.7c2.6,0,4.5-1.4,4.5-3.6c0-1.6-1-2.7-2.8-3.1l-1.9-0.5c-0.7-0.2-1.1-0.3-1.1-0.9
		s0.5-0.9,1.1-0.9c0.8,0,1.3,0.5,1.2,1.2h3c-0.1-2.3-1.8-3.7-4.2-3.7c-2.4,0-4.2,1.4-4.2,3.6c0,1.5,0.8,2.7,3,3.2l1.9,0.5
		c0.6,0.2,0.8,0.4,0.8,0.8c0,0.5-0.5,0.9-1.4,0.9c-1,0-1.5-0.5-1.5-1.2H253.7z"/>
	<path d="M267.9,170c1.3,0,2.7-0.6,3.3-1.5l0.2,1.2h3.2v-10.9h-3.4v5.7c0,1.6-0.5,2.5-2,2.5c-1.2,0-2-0.5-2-2.6v-5.6h-3.4v6.9
		C263.9,168.3,265.3,170,267.9,170z"/>
	<path d="M280,169.7v-6c0-1.8,1-2.4,1.9-2.4c1.1,0,1.8,0.7,1.8,2v6.3h3.3v-6c0-1.9,1-2.4,1.9-2.4c1.1,0,1.8,0.7,1.8,2v6.3h3.3v-7.1
		c0-2.5-1.3-4.1-4.1-4.1c-1.6,0-2.9,0.8-3.4,1.9c-0.7-1.2-1.8-1.9-3.6-1.9c-1.2,0-2.3,0.5-3,1.4l-0.1-1h-3.1v10.9H280z"/>
</g>
<g>
	<path d="M140,164.3c0-9.4,0-14.1,2.9-17.1c2.9-2.9,7.6-2.9,17.1-2.9s14.1,0,17.1,2.9c2.9,2.9,2.9,7.6,2.9,17.1s0,14.1-2.9,17.1
		c-2.9,2.9-7.6,2.9-17.1,2.9s-14.1,0-17.1-2.9C140,178.4,140,173.7,140,164.3z"/>
	<path style="fill:#2DF8BB;" d="M164,170.3c0.6,0,1,0.5,0.9,1c-0.2,1-0.7,1.8-1.4,2.5c-0.9,0.9-2.2,1.5-3.5,1.5s-2.6-0.5-3.5-1.5
		c-0.7-0.7-1.2-1.6-1.4-2.5c-0.1-0.5,0.3-1,0.9-1H164z"/>
	<path style="fill:#2DF8BB;" d="M166.1,162.1c-0.5,0.1-0.9,0.7-0.6,1.2c0.3,0.5,0.7,0.9,1.2,1.3c0.8,0.5,1.7,0.8,2.6,0.7
		c0.9-0.1,1.8-0.4,2.5-1.1c0.7-0.6,1.1-1.5,1.2-2.4c0.1-0.9-0.1-1.8-0.6-2.6c-0.5-0.8-1.2-1.4-2.1-1.7s-1.8-0.3-2.7,0
		c-0.6,0.2-1,0.5-1.5,0.9c-0.4,0.4-0.2,1,0.3,1.3l0.5,0.3c0.8,0.4,0.6,1.6-0.2,1.8L166.1,162.1z"/>
	<path style="fill:#2DF8BB;" d="M153.9,162.1c0.5,0.1,0.9,0.7,0.6,1.2c-0.3,0.5-0.7,0.9-1.2,1.3c-0.8,0.5-1.7,0.8-2.6,0.7
		c-0.9-0.1-1.8-0.4-2.5-1.1s-1.1-1.5-1.2-2.4s0.1-1.8,0.6-2.6c0.5-0.8,1.2-1.4,2.1-1.7c0.9-0.3,1.8-0.3,2.7,0c0.6,0.2,1,0.5,1.5,0.9
		c0.4,0.4,0.2,1-0.3,1.3l-0.5,0.3c-0.8,0.4-0.6,1.6,0.2,1.8L153.9,162.1z"/>
</g>
<g>
	<path d="M152.3,114.2c0.5,0.4,0.8,1,1.1,1.6c0.3,0.6,0.4,1.3,0.4,2.2c0,0.9-0.1,1.7-0.4,2.3c-0.3,0.6-0.6,1.1-1.1,1.4
		c-0.4,0.3-0.9,0.6-1.4,0.7c-0.5,0.1-0.9,0.2-1.4,0.2c-0.6,0-1.1-0.1-1.7-0.3c-0.6-0.2-1.1-0.5-1.5-0.9c-0.5,1.6-1.2,2.8-2.2,3.6
		c-1,0.8-2,1.4-3.2,1.7v-3.6c0.5-0.1,0.9-0.3,1.3-0.5c0.4-0.2,0.7-0.5,1.1-1c0.3-0.4,0.6-1,0.9-1.7s0.4-1.6,0.5-2.7
		c0.2-1.4,0.6-2.5,1.2-3.2s1.6-1.1,2.9-1.1c0.7,0,1.3,0.1,1.9,0.3C151.3,113.4,151.8,113.8,152.3,114.2z M151,117.7
		c0-0.5-0.2-0.9-0.6-1.3c-0.4-0.4-0.9-0.5-1.4-0.5c-0.4,0-0.7,0.1-1,0.4c-0.3,0.3-0.4,0.6-0.4,1c0,0.4,0.2,0.8,0.6,1.1
		c0.4,0.3,0.8,0.5,1.4,0.5c0.4,0,0.8-0.1,1.1-0.3S151,118.1,151,117.7z"/>
	<path d="M166.8,122.4L166.8,122.4c-0.4,0-0.8,0-1.3-0.1c-0.5,0-0.8-0.1-0.9-0.1c-0.4,0.9-1,1.7-1.9,2.3c-0.8,0.6-1.7,1-2.7,1.4
		s-1.8,0.5-2.7,0.7s-1.6,0.2-2.3,0.2v-3.5c1,0,1.9-0.1,2.7-0.2c0.8-0.2,1.5-0.3,2.1-0.5c0.6-0.2,1-0.4,1.3-0.5
		c0.2-0.1,0.4-0.2,0.4-0.2c-1.7-0.2-3-0.7-3.9-1.6s-1.3-1.9-1.3-3.1c0-1.3,0.4-2.3,1.2-3.2c0.8-0.9,1.8-1.4,2.9-1.4
		c1.3,0,2.3,0.6,3.2,1.7c0.9,1.2,1.4,2.6,1.5,4.5c0.1,0,0.4,0,0.8,0c0.4,0,0.7,0,0.9,0h0.1V122.4z M162.1,118.5
		c-0.1-0.9-0.3-1.6-0.6-2.2c-0.3-0.5-0.7-0.8-1-0.8c-0.4,0-0.7,0.1-0.9,0.4c-0.3,0.3-0.4,0.6-0.4,1s0.3,0.7,0.9,1
		C160.6,118.3,161.3,118.5,162.1,118.5z"/>
	<path d="M190.4,122.4h-1c-0.8,0-1.4-0.1-1.9-0.4c-0.5-0.3-0.9-0.6-1.1-1c-0.2,0.4-0.7,0.8-1.3,1.1c-0.6,0.3-1.4,0.4-2.1,0.4
		c-0.7,0-1.3-0.1-1.8-0.4c-0.5-0.3-0.9-0.6-1.2-1c-0.3,0.4-0.7,0.8-1.3,1.1c-0.6,0.3-1.2,0.4-2,0.4c-0.7,0-1.3-0.1-1.8-0.4
		s-0.9-0.6-1.2-1c-0.4,0.5-0.8,0.8-1.4,1.1c-0.6,0.2-1.2,0.4-1.9,0.4H166v-3.6h4.3c0.6,0,1-0.2,1.4-0.6c0.3-0.4,0.5-0.9,0.5-1.5
		v-1.5h2.8v1.5c0,0.6,0.1,1.1,0.4,1.5c0.3,0.4,0.7,0.6,1.2,0.6c0.6,0,1-0.2,1.4-0.6s0.5-0.9,0.5-1.5v-1.5h2.8v1.5
		c0,0.6,0.1,1.1,0.4,1.5c0.3,0.4,0.7,0.6,1.2,0.6c0.6,0,1.1-0.2,1.4-0.7c0.4-0.4,0.6-1,0.6-1.7v-3h2.8v3c0,0.8,0.2,1.3,0.6,1.7
		c0.4,0.4,0.9,0.6,1.4,0.6h0.6V122.4z"/>
	<path d="M195.8,116.4c0,1.9-0.4,3.3-1.2,4.4c-0.8,1.1-1.9,1.6-3.2,1.6h-1.7v-3.6h1.2c0.6,0,1.1-0.2,1.5-0.6c0.4-0.4,0.6-1,0.6-1.8
		v-3h2.8V116.4z M193.5,125.4H192v-1.5h1.5V125.4z"/>
	<path d="M201.9,122.5h-2.8v-15.8h2.8V122.5z"/>
	<path d="M215.5,122.4L215.5,122.4c-0.4,0-0.8,0-1.3-0.1c-0.5,0-0.8-0.1-0.9-0.1c-0.4,0.9-1,1.7-1.9,2.3c-0.8,0.6-1.7,1-2.7,1.4
		s-1.8,0.5-2.7,0.7c-0.8,0.1-1.6,0.2-2.3,0.2v-3.5c1,0,1.9-0.1,2.7-0.2c0.8-0.2,1.5-0.3,2.1-0.5c0.6-0.2,1-0.4,1.3-0.5
		c0.2-0.1,0.4-0.2,0.4-0.2c-1.7-0.2-3-0.7-3.9-1.6c-0.9-0.9-1.3-1.9-1.3-3.1c0-1.3,0.4-2.3,1.2-3.2s1.8-1.4,2.9-1.4
		c1.3,0,2.3,0.6,3.2,1.7s1.4,2.6,1.5,4.5c0.1,0,0.4,0,0.8,0s0.7,0,0.9,0h0.1V122.4z M210.8,118.5c-0.1-0.9-0.3-1.6-0.6-2.2
		c-0.3-0.5-0.7-0.8-1-0.8c-0.4,0-0.7,0.1-0.9,0.4c-0.3,0.3-0.4,0.6-0.4,1s0.3,0.7,0.9,1C209.3,118.3,210,118.5,210.8,118.5z"/>
	<path d="M230.1,116.5l-4.6,2.6c-0.5,0.3-1,0.6-1.5,0.9c-0.5,0.3-1.2,0.7-2.1,1.1c-0.8,0.4-1.5,0.7-2.2,0.9c-0.7,0.3-1.3,0.4-2,0.4
		h-3v-3.6h3c1.2,0,2.2-0.1,3.2-0.4c0.9-0.3,2.1-0.8,3.6-1.6c-0.8-0.3-1.7-0.6-2.7-0.9c-1.1-0.2-2.1-0.3-3.2-0.3h-2.1v-3.1h2.2
		c1.2,0,2.4,0.2,3.7,0.6c1.3,0.4,2.9,1.2,4.7,2.2l2.9-1.5V116.5z M228.3,123.2h-1.5v-1.5h1.5V123.2z"/>
	<path d="M242.8,122.4L242.8,122.4c-0.4,0-0.8,0-1.3-0.1c-0.5,0-0.8-0.1-0.9-0.1c-0.4,0.9-1,1.7-1.9,2.3c-0.8,0.6-1.7,1-2.7,1.4
		s-1.8,0.5-2.7,0.7c-0.8,0.1-1.6,0.2-2.3,0.2v-3.5c1,0,1.9-0.1,2.7-0.2c0.8-0.2,1.5-0.3,2.1-0.5c0.6-0.2,1-0.4,1.3-0.5
		c0.2-0.1,0.4-0.2,0.4-0.2c-1.7-0.2-3-0.7-3.9-1.6c-0.9-0.9-1.3-1.9-1.3-3.1c0-1.3,0.4-2.3,1.2-3.2s1.8-1.4,2.9-1.4
		c1.3,0,2.3,0.6,3.2,1.7s1.4,2.6,1.5,4.5c0.1,0,0.4,0,0.8,0s0.7,0,0.9,0h0.1V122.4z M238.1,118.5c-0.1-0.9-0.3-1.6-0.6-2.2
		c-0.3-0.5-0.7-0.8-1-0.8c-0.4,0-0.7,0.1-0.9,0.4c-0.3,0.3-0.4,0.6-0.4,1s0.3,0.7,0.9,1C236.6,118.3,237.3,118.5,238.1,118.5z"/>
	<path d="M248.3,116.4c0,1.8-0.4,3.2-1.2,4.4c-0.8,1.1-1.9,1.7-3.3,1.7h-1.7v-3.6h1.2c0.3,0,0.6,0,0.8-0.1c0.3-0.1,0.5-0.2,0.7-0.4
		c0.2-0.2,0.4-0.5,0.5-0.7c0.1-0.3,0.2-0.6,0.2-1.1v-9.7h2.8V116.4z"/>
</g>
<g>
	<path d="M73.7,21.7H36.6c-1-3-3.9-5.2-7.3-5.2s-6.2,2.2-7.3,5.2h-5.8c-1.3,0-2.4,1.1-2.4,2.4s1.1,2.4,2.4,2.4h5.8
		c1,3,3.9,5.2,7.3,5.2s6.2-2.2,7.3-5.2h37.1c1.3,0,2.4-1.1,2.4-2.4S75,21.7,73.7,21.7z M29.4,26.9c-1.5,0-2.8-1.2-2.8-2.8
		c0-1.5,1.2-2.8,2.8-2.8c1.5,0,2.8,1.2,2.8,2.8S30.9,26.9,29.4,26.9z"/>
	<path d="M73.7,42.6h-5.8c-1-3-3.9-5.2-7.3-5.2c-3.4,0-6.2,2.2-7.3,5.2H16.3c-1.3,0-2.4,1.1-2.4,2.4c0,1.3,1.1,2.4,2.4,2.4h37.1
		c1,3,3.9,5.2,7.3,5.2s6.2-2.2,7.3-5.2h5.8c1.3,0,2.4-1.1,2.4-2.4C76.1,43.7,75,42.6,73.7,42.6z M60.6,47.8c-1.5,0-2.8-1.2-2.8-2.8
		s1.2-2.8,2.8-2.8s2.8,1.2,2.8,2.8S62.2,47.8,60.6,47.8z"/>
	<path d="M73.7,63.4H47c-1-3-3.9-5.2-7.3-5.2s-6.2,2.2-7.3,5.2H16.3c-1.3,0-2.4,1.1-2.4,2.4c0,1.3,1.1,2.4,2.4,2.4h16.2
		c1,3,3.9,5.2,7.3,5.2s6.2-2.2,7.3-5.2h26.7c1.3,0,2.4-1.1,2.4-2.4C76.1,64.5,75,63.4,73.7,63.4z M39.8,68.6c-1.5,0-2.8-1.2-2.8-2.8
		c0-1.5,1.2-2.8,2.8-2.8c1.5,0,2.8,1.2,2.8,2.8C42.6,67.4,41.3,68.6,39.8,68.6z"/>
</g>
<path d="M-78.6,23.5l24.5-3.3l0,23.6l-24.5,0.1L-78.6,23.5z M-54.1,46.5l0,23.6l-24.5-3.4l0-20.4L-54.1,46.5z M-51.1,19.7l32.4-4.7
	v28.5l-32.4,0.3L-51.1,19.7z M-18.7,46.7l0,28.3l-32.4-4.6l0-23.8L-18.7,46.7z"/>
<g>
	<path d="M-113.7,54.9c0,2.3-1.8,4.1-4.1,4.1l0,0c-2.3,0-4.1-1.8-4.1-4.1V37.1c0-2.3,1.8-4.1,4.1-4.1l0,0c2.3,0,4.1,1.8,4.1,4.1
		V54.9z"/>
	<path d="M-163.4,54.9c0,2.3-1.8,4.1-4.1,4.1l0,0c-2.3,0-4.1-1.8-4.1-4.1V37.1c0-2.3,1.8-4.1,4.1-4.1l0,0c2.3,0,4.1,1.8,4.1,4.1
		V54.9z"/>
	<path d="M-161.6,33.8v29c0,1.5,1.3,2.8,2.8,2.8h5.1v9.8c0,2.3,1.8,4.1,4.1,4.1c2.3,0,4.1-1.8,4.1-4.1v-9.8h6v9.8
		c0,2.3,1.8,4.1,4.1,4.1c2.3,0,4.1-1.8,4.1-4.1v-9.8h5c1.6,0,2.8-1.3,2.8-2.8v-29C-133.3,33.8-153.1,33.8-161.6,33.8z"/>
	<path d="M-133.4,17.1l3.2-5.6c0.2-0.3,0.1-0.7-0.2-0.9c-0.3-0.2-0.7-0.1-0.9,0.2l-3.3,5.6c-2.5-1.1-5.2-1.8-8.1-1.8v0
		c-2.9,0-5.7,0.7-8.2,1.9l-2.9-5.6c-0.2-0.3-0.6-0.4-0.9-0.3c-0.3,0.2-0.4,0.5-0.3,0.9l2.9,5.6c-5.3,3-9.1,8.4-9.8,14.8h38.4
		C-124.1,25.5-128,20-133.4,17.1z M-151.3,25.2c-0.9,0-1.6-0.7-1.6-1.6c0-0.9,0.7-1.6,1.6-1.6c0.9,0,1.6,0.7,1.6,1.6
		C-149.7,24.5-150.4,25.2-151.3,25.2z M-133.9,25.2c-0.9,0-1.6-0.7-1.6-1.6c0-0.9,0.7-1.6,1.6-1.6c0.9,0,1.6,0.7,1.6,1.6
		C-132.3,24.5-133,25.2-133.9,25.2z"/>
</g>
<g>
	<g>
		<g>
			<path d="M-208.1,42l-10.3-10.3V19.8c0-2.1-1.7-3.9-3.9-3.9c-2.1,0-3.9,1.7-3.9,3.9v4.1l-7.7-7.7c-3.8-3.8-10.4-3.8-14.1,0
				L-273.7,42c-1.5,1.5-1.5,4,0,5.5c1.5,1.5,4,1.5,5.5,0l25.7-25.7c0.8-0.8,2.3-0.8,3.1,0l25.7,25.7c0.8,0.8,1.8,1.1,2.7,1.1
				c1,0,2-0.4,2.8-1.1C-206.6,45.9-206.6,43.5-208.1,42z"/>
			<path d="M-239.6,29.1c-0.7-0.7-2-0.7-2.7,0l-22.6,22.6c-0.4,0.4-0.6,0.8-0.6,1.4v16.5c0,3.9,3.1,7,7,7h11.2V59.2h12.6v17.3h11.2
				c3.9,0,7-3.1,7-7V53.1c0-0.5-0.2-1-0.6-1.4L-239.6,29.1z"/>
		</g>
	</g>
</g>
</svg>
