<?xml version="1.0" encoding="utf-8"?>
<!-- Generator: Adobe Illustrator 24.0.0, SVG Export Plug-In . SVG Version: 6.00 Build 0)  -->
<svg version="1.1" id="logo-34" xmlns="http://www.w3.org/2000/svg" xmlns:xlink="http://www.w3.org/1999/xlink" x="0px" y="0px"
	 viewBox="0 0 155 40" style="enable-background:new 0 0 155 40;" xml:space="preserve">
<style type="text/css">
	.st0{fill:#2DF8BB;}
</style>
<g>
	<path d="M51.5,9.3h-3.6v16.2h9.9v-3.2h-6.3V9.3z"/>
	<path d="M58.2,20c0,3.5,2.3,5.7,5.8,5.7c3.5,0,5.8-2.3,5.8-5.7s-2.3-5.8-5.8-5.8C60.5,14.2,58.2,16.5,58.2,20z M61.6,19.9
		c0-1.6,1-2.7,2.4-2.7c1.4,0,2.4,1.1,2.4,2.7c0,1.7-1,2.8-2.4,2.8C62.5,22.7,61.6,21.6,61.6,19.9z"/>
	<path d="M70.3,19.8c0,3.3,2.1,5.5,5.2,5.5c1.5,0,2.7-0.5,3.4-1.4v1.5c0,1.5-0.9,2.5-2.6,2.5c-1.5,0-2.5-0.7-2.6-1.9h-3.4
		c0.3,3,2.6,5,5.8,5c3.7,0,6.1-2.4,6.1-6.3V14.5h-3L79,15.6c-0.6-0.9-1.9-1.5-3.4-1.5C72.5,14.1,70.3,16.4,70.3,19.8z M73.7,19.7
		c0-1.6,1-2.6,2.4-2.6c1.6,0,2.7,1,2.7,2.6s-1.1,2.7-2.7,2.7C74.8,22.4,73.7,21.3,73.7,19.7z"/>
	<path d="M83.2,20c0,3.5,2.3,5.7,5.8,5.7c3.5,0,5.8-2.3,5.8-5.7s-2.3-5.8-5.8-5.8C85.5,14.2,83.2,16.5,83.2,20z M86.5,19.9
		c0-1.6,1-2.7,2.4-2.7c1.4,0,2.4,1.1,2.4,2.7c0,1.7-1,2.8-2.4,2.8C87.5,22.7,86.5,21.6,86.5,19.9z"/>
	<path d="M97.7,12.8c1,0,1.9-0.9,1.9-1.9c0-1.1-0.9-1.9-1.9-1.9c-1.1,0-1.9,0.8-1.9,1.9C95.7,12,96.6,12.8,97.7,12.8z M96,25.4h3.4
		V14.5H96V25.4z"/>
	<path d="M101.3,30.7h3.3v-6.3c0.6,0.8,2.1,1.4,3.6,1.4c3.3,0,5.2-2.5,5.1-5.9c-0.1-3.5-2.1-5.6-5.2-5.6c-1.6,0-3,0.7-3.6,1.7
		l-0.2-1.3h-3.1V30.7z M104.7,20c0-1.6,1.1-2.7,2.7-2.7c1.6,0,2.6,1.1,2.6,2.7c0,1.6-1,2.7-2.6,2.7C105.8,22.7,104.7,21.6,104.7,20z
		"/>
	<path d="M113.7,22c0.1,2.2,1.8,3.7,4.6,3.7c2.6,0,4.5-1.4,4.5-3.6c0-1.6-1-2.7-2.8-3.1l-1.9-0.5c-0.7-0.2-1.1-0.3-1.1-0.9
		s0.5-0.9,1.1-0.9c0.8,0,1.3,0.5,1.2,1.2h3c-0.1-2.3-1.8-3.7-4.2-3.7c-2.4,0-4.2,1.4-4.2,3.6c0,1.5,0.8,2.7,3,3.2l1.9,0.5
		c0.6,0.2,0.8,0.4,0.8,0.8c0,0.5-0.5,0.9-1.4,0.9c-1,0-1.5-0.5-1.5-1.2H113.7z"/>
	<path d="M127.9,25.7c1.3,0,2.7-0.6,3.3-1.5l0.2,1.2h3.2V14.5h-3.4v5.7c0,1.6-0.5,2.5-2,2.5c-1.2,0-2-0.5-2-2.6v-5.6h-3.4v6.9
		C123.9,24,125.3,25.7,127.9,25.7z"/>
	<path d="M140,25.4v-6c0-1.8,1-2.4,1.9-2.4c1.1,0,1.8,0.7,1.8,2v6.3h3.3v-6c0-1.9,1-2.4,1.9-2.4c1.1,0,1.8,0.7,1.8,2v6.3h3.3v-7.1
		c0-2.5-1.3-4.1-4.1-4.1c-1.6,0-2.9,0.8-3.4,1.9c-0.7-1.2-1.8-1.9-3.6-1.9c-1.2,0-2.3,0.5-3,1.4l-0.1-1h-3.1v10.9H140z"/>
</g>
<g>
	<path d="M0,20C0,10.6,0,5.9,2.9,2.9S10.6,0,20,0s14.1,0,17.1,2.9C40,5.9,40,10.6,40,20s0,14.1-2.9,17.1C34.1,40,29.4,40,20,40
		S5.9,40,2.9,37.1C0,34.1,0,29.4,0,20z"/>
	<path class="st0" d="M24,26c0.6,0,1,0.5,0.9,1c-0.2,1-0.7,1.8-1.4,2.5C22.6,30.5,21.3,31,20,31s-2.6-0.5-3.5-1.5
		c-0.7-0.7-1.2-1.6-1.4-2.5c-0.1-0.5,0.3-1,0.9-1H24z"/>
	<path class="st0" d="M26.1,17.8c-0.5,0.1-0.9,0.7-0.6,1.2c0.3,0.5,0.7,0.9,1.2,1.3c0.8,0.5,1.7,0.8,2.6,0.7
		c0.9-0.1,1.8-0.4,2.5-1.1c0.7-0.6,1.1-1.5,1.2-2.4s-0.1-1.8-0.6-2.6c-0.5-0.8-1.2-1.4-2.1-1.7c-0.9-0.3-1.8-0.3-2.7,0
		c-0.6,0.2-1,0.5-1.5,0.9c-0.4,0.4-0.2,1,0.3,1.3l0.5,0.3c0.8,0.4,0.6,1.6-0.2,1.8L26.1,17.8z"/>
	<path class="st0" d="M13.9,17.8c0.5,0.1,0.9,0.7,0.6,1.2c-0.3,0.5-0.7,0.9-1.2,1.3c-0.8,0.5-1.7,0.8-2.6,0.7
		c-0.9-0.1-1.8-0.4-2.5-1.1c-0.7-0.6-1.1-1.5-1.2-2.4s0.1-1.8,0.6-2.6c0.5-0.8,1.2-1.4,2.1-1.7c0.9-0.3,1.8-0.3,2.7,0
		c0.6,0.2,1,0.5,1.5,0.9c0.4,0.4,0.2,1-0.3,1.3l-0.5,0.3c-0.8,0.4-0.6,1.6,0.2,1.8L13.9,17.8z"/>
</g>
</svg>
