<?xml version="1.0" encoding="utf-8"?>
<!-- Generator: Adobe Illustrator 24.0.0, SVG Export Plug-In . SVG Version: 6.00 Build 0)  -->
<svg version="1.1" id="Layer_1" xmlns="http://www.w3.org/2000/svg" xmlns:xlink="http://www.w3.org/1999/xlink" x="0px" y="0px"
	 viewBox="0 0 25 25" style="enable-background:new 0 0 25 25;" xml:space="preserve">
<path fill="white" d="M24.9,9.8c0,0.2-0.1,0.5-0.4,0.7l-5.5,5.3l1.3,7.5c0,0.1,0,0.1,0,0.4c0,0.2,0,0.4-0.1,0.5
	c-0.1,0.1-0.2,0.2-0.5,0.2c-0.2,0-0.4-0.1-0.6-0.2l-6.7-3.6l-6.7,3.6c-0.2,0.1-0.5,0.2-0.6,0.2c-0.2,0-0.4-0.1-0.5-0.2
	s-0.1-0.4-0.1-0.5s0-0.1,0-0.4l1.3-7.5l-5.5-5.3C0.2,10.3,0.1,10,0.1,9.8c0-0.4,0.2-0.6,0.8-0.7L8.4,8l3.3-6.8
	c0.2-0.4,0.5-0.6,0.7-0.6c0.4,0,0.6,0.2,0.7,0.6L16.6,8l7.5,1.1C24.7,9.2,24.9,9.3,24.9,9.8L24.9,9.8z"/>
</svg>
