<svg version="1.1" id="Layer_1" xmlns="http://www.w3.org/2000/svg" xmlns:xlink="http://www.w3.org/1999/xlink" x="0px" y="0px"
	 viewBox="0 0 12 12" style="enable-background:new 0 0 12 12;" xml:space="preserve">
<style type="text/css">
	.st0{fill:#7B7B7B;}
</style>
<g>
	<g transform="translate(-325.000000, -379.000000)">
		<g transform="translate(0.000000, 365.000000)">
			<g transform="translate(325.000000, 14.000000)">
				<path class="st0" d="M9.9,2.4c-0.2,0-0.4,0.2-0.4,0.4v7.9c0,0.1,0,0.2-0.1,0.3S9.1,11.1,9,11.1H3c-0.2,0-0.4-0.2-0.4-0.4V2.8
					c0-0.2-0.2-0.4-0.4-0.4S1.7,2.5,1.7,2.8v7.9C1.7,11.4,2.3,12,3,12h6c0.7,0,1.3-0.6,1.3-1.3V2.8C10.3,2.6,10.1,2.4,9.9,2.4z
					 M5.1,9V4.2c0-0.2-0.2-0.4-0.4-0.4C4.5,3.8,4.3,4,4.3,4.2V9c0,0.2,0.2,0.4,0.4,0.4C4.9,9.4,5.1,9.2,5.1,9z M7.7,9V4.2
					c0-0.2-0.2-0.4-0.4-0.4C7,3.8,6.8,4,6.8,4.2V9c0,0.2,0.2,0.4,0.4,0.4C7.5,9.4,7.7,9.2,7.7,9z M11.5,2.1H9.4V1.2
					C9.4,0.5,8.9,0,8.2,0L3.9,0C3.1,0,2.6,0.5,2.6,1.2v0.9H0.5c-0.2,0-0.4,0.2-0.4,0.4s0.2,0.4,0.4,0.4h11c0.2,0,0.4-0.2,0.4-0.4
					S11.7,2.1,11.5,2.1L11.5,2.1z M8.5,2.1H3.4V1.2c0-0.2,0.2-0.4,0.5-0.4h4.3c0.2,0,0.4,0.2,0.4,0.4L8.5,2.1z"/>
			</g>
		</g>
	</g>
</g>
</svg>
