<svg version="1.1" id="Capa_1" xmlns="http://www.w3.org/2000/svg" xmlns:xlink="http://www.w3.org/1999/xlink" x="0px" y="0px"
	 viewBox="0 0 512 512" style="enable-background:new 0 0 512 512;" xml:space="preserve">
	<g>
	<path d="M225.5,0C101.2,0,0,101.2,0,225.5S101.2,451,225.5,451S451,349.9,451,225.5C450.9,101.2,349.8,0,225.5,0z M225.5,409.3
				c-101.4,0-183.8-82.5-183.8-183.8S124.1,41.6,225.5,41.6s183.8,82.5,183.8,183.8S326.8,409.3,225.5,409.3z M505.9,476.5L386.6,357.1c-8.1-8.1-21.3-8.1-29.4,0s-8.1,21.3,0,29.4l119.3,119.3c4.1,4.1,9.4,6.1,14.7,6.1
				c5.3,0,10.6-2,14.7-6.1C514,497.8,514,484.6,505.9,476.5z"/>
	</g>
</svg>
