<svg version="1.1" id="Layer_1" xmlns="http://www.w3.org/2000/svg" xmlns:xlink="http://www.w3.org/1999/xlink" x="0px" y="0px"
	 viewBox="0 0 23 16" style="enable-background:new 0 0 23 16;" xml:space="preserve">
<path style="fill-opacity:0.7;" d="M22.2,2.6c-0.3-1-0.8-1.8-1.8-2.1c-1.8-0.5-9-0.5-9-0.5s-7.3,0-9,0.5c-1,0.3-1.5,1.1-1.8,2.1C0,4.3,0,8,0,8
	s0,3.7,0.5,5.4c0.3,1,0.8,1.8,1.8,2.1c1.8,0.5,9,0.5,9,0.5s7.3,0,9-0.5c1-0.3,1.5-1.1,1.8-2.1c0.5-1.8,0.5-5.4,0.5-5.4
	S22.6,4.3,22.2,2.6z"/>
<path style="fill:#FFFFFF;" d="M15,8L9,4.7v6.7"/>
</svg>
