<svg xmlns="http://www.w3.org/2000/svg" viewBox="0 0 50 50">
<path fill="#3e4349" d="M18.6,8h12.7V4.5c0-1.2,0.9-2.1,2.1-2.1c1.2,0,2.1,0.9,2.1,2.1V8h3.5c3.1,0,5.7,2.5,5.7,5.7V42c0,3.1-2.5,5.7-5.7,5.7H10.9
	c-3.1,0-5.7-2.5-5.7-5.7V13.7c0-3.1,2.5-5.7,5.7-5.7h3.5V4.5c0-1.2,0.9-2.1,2.1-2.1s2.1,0.9,2.1,2.1V8z M9.5,24.3h7.1v-4.9H9.5V24.3
	z M9.5,28.5v5.7h7.1v-5.7H9.5z M20.8,28.5v5.7h8.5v-5.7H20.8z M33.5,28.5v5.7h7.1v-5.7H33.5z M40.5,19.3h-7.1v4.9h7.1V19.3z
	 M40.5,38.4h-7.1v4.9h5.7c0.8,0,1.4-0.6,1.4-1.4V38.4z M29.2,38.4h-8.5v4.9h8.5V38.4z M16.5,38.4H9.5V42c0,0.8,0.6,1.4,1.4,1.4h5.7
	V38.4z M29.2,19.3h-8.5v4.9h8.5V19.3z"/>
</svg>
