<?xml version="1.0" encoding="utf-8"?>
<!-- Generator: Adobe Illustrator 24.0.0, SVG Export Plug-In . SVG Version: 6.00 Build 0)  -->
<svg version="1.1" id="Layer_1" xmlns="http://www.w3.org/2000/svg" xmlns:xlink="http://www.w3.org/1999/xlink" x="0px" y="0px"
	 viewBox="0 0 11.3 11.3" style="enable-background:new 0 0 11.3 11.3;" xml:space="preserve">
<g fill="#3e4349">
	<path d="M4,5.4C3.1,5.4,2.4,6.1,2.4,7c0,0.5,0.3,1,0.6,1.3v1.3c0,0.2,0.1,0.3,0.3,0.3c0.1,0,0.1,0,0.1-0.1L4,9.7L4.5,10
		c0.2,0.1,0.4,0,0.4-0.1C4.9,9.8,5,9.7,5,9.7V8.3C5.7,7.8,5.9,6.7,5.3,6C5.1,5.6,4.5,5.4,4,5.4z M4.4,9.2L4.2,9.1C4.1,9,4,9,3.8,9.1
		L3.7,9.2V8.6c0.2,0.1,0.4,0.1,0.6,0L4.4,9.2z M4,8C3.5,8,3,7.6,3,7c0-0.6,0.4-1,1-1s1,0.4,1,1C5,7.6,4.5,8,4,8L4,8z"/>
	<path d="M1.3,0C1.2,0,1,0.1,1,0.3l0,0V11c0,0.2,0.1,0.3,0.3,0.3h6c0.1,0,0.2-0.1,0.3-0.1l2.6-2.7c0.1-0.1,0.1-0.1,0.1-0.3V0.3
		C10.3,0.1,10.2,0,10,0l0,0H1.3z M1.7,0.6h7.9V8H7.4C7.2,8,7,8.1,7,8.3l0,0v2.3H1.7V0.6z M9.2,8.7l-1.5,1.5V8.7H9.2z"/>
	<path d="M2.7,3.4h6C8.8,3.4,9,3.3,9,3.1V1.7c0-0.2-0.1-0.3-0.3-0.3l0,0h-6c-0.2,0-0.3,0.1-0.3,0.3l0,0V3C2.4,3.2,2.5,3.4,2.7,3.4z
		 M3,2h5.3v0.7H3V2z"/>
	<path d="M2.7,4.7h6C8.8,4.7,9,4.5,9,4.4C9,4.2,8.8,4,8.6,4h-6C2.5,4,2.4,4.2,2.4,4.4C2.4,4.5,2.5,4.7,2.7,4.7z"/>
	<path d="M8.6,5.4h-2c-0.2,0-0.3,0.2-0.3,0.3C6.3,5.9,6.5,6,6.7,6h2C8.8,6,9,5.8,9,5.7C9,5.5,8.8,5.4,8.6,5.4z"/>
	<path d="M8.6,7.4C8.8,7.4,9,7.2,9,7S8.8,6.7,8.6,6.7l0,0h-2C6.5,6.7,6.3,6.9,6.3,7s0.1,0.3,0.3,0.3l0,0H8.6z"/>
</g>
</svg>
