<?xml version="1.0" encoding="utf-8"?>
<!-- Generator: Adobe Illustrator 24.0.0, SVG Export Plug-In . SVG Version: 6.00 Build 0)  -->
<svg version="1.1" id="Layer_1" xmlns="http://www.w3.org/2000/svg" xmlns:xlink="http://www.w3.org/1999/xlink" x="0px" y="0px"
	 viewBox="0 0 11.3 11.3" style="enable-background:new 0 0 11.3 11.3;" xml:space="preserve">
<path fill="#3e4349" d="M5.7,0C2.6,0,0,2.6,0,5.6s2.6,5.7,5.6,5.7s5.7-2.6,5.7-5.6l0,0C11.3,2.6,8.8,0,5.7,0z M9.6,3.4H7.9C7.8,2.7,7.5,2,7.2,1.3
	C8.2,1.7,9,2.4,9.6,3.4L9.6,3.4z M5.7,1.2c0.5,0.7,0.8,1.5,1.1,2.2H4.6C4.8,2.6,5.2,1.9,5.7,1.2z M1.3,6.8C1.2,6.4,1.2,6.1,1.2,5.7
	s0.1-0.8,0.2-1.2h1.9C3.2,4.9,3.1,5.3,3.2,5.7c0,0.4,0,0.7,0,1.1H1.3z M1.7,7.9h1.7c0.2,0.7,0.4,1.4,0.8,2C3.1,9.6,2.3,8.9,1.7,7.9z
	 M3.4,3.4H1.7c0.6-1,1.5-1.7,2.5-2C3.8,2,3.6,2.7,3.4,3.4z M5.7,10.2C5.2,9.5,4.9,8.7,4.6,7.9h2.2C6.5,8.8,6.1,9.5,5.7,10.2z M7,6.8
	H4.4C4.3,6.4,4.3,6,4.2,5.7c0-0.4,0.1-0.8,0.1-1.2H7c0.1,0.4,0.1,0.8,0.1,1.2C7.1,6,7,6.4,7,6.8z M7.2,10c0.4-0.6,0.6-1.3,0.8-2h1.7
	C9,8.9,8.2,9.6,7.2,10L7.2,10z M8.1,6.8C8.2,6.4,8.2,6,8.2,5.6S8.1,4.9,8.1,4.5h1.9c0.1,0.4,0.2,0.8,0.2,1.2c0,0.4-0.1,0.8-0.2,1.2
	L8.1,6.8L8.1,6.8z"/>
</svg>
