<?xml version="1.0" encoding="utf-8"?>
<!-- Generator: Adobe Illustrator 24.0.0, SVG Export Plug-In . SVG Version: 6.00 Build 0)  -->
<svg version="1.1" id="Layer_1" xmlns="http://www.w3.org/2000/svg" xmlns:xlink="http://www.w3.org/1999/xlink" x="0px" y="0px"
	 viewBox="0 0 11.3 11.3" style="enable-background:new 0 0 11.3 11.3;" xml:space="preserve">
<path fill="#3e4349" d="M8.8,4.3c-0.7,0-1.3,0.4-1.6,1.1H5.6c-1.2,0-2.1-0.8-2.4-2c0.6-0.3,1-0.9,1-1.6c0-1-0.8-1.8-1.8-1.8
	C1.5,0.1,0.7,0.9,0.7,1.9c0,0.7,0.4,1.3,1.1,1.6V8C1.2,8.2,0.7,8.8,0.7,9.6c0,1,0.8,1.8,1.8,1.8s1.8-0.8,1.8-1.8
	c0-0.7-0.4-1.3-1.1-1.6V5.9c0.7,0.5,1.5,0.9,2.5,0.9h1.5c0.3,0.6,0.9,1.1,1.6,1.1c1,0,1.8-0.8,1.8-1.8S9.8,4.3,8.8,4.3z M2.5,1.3
	C2.8,1.3,3,1.6,3,1.9S2.8,2.4,2.5,2.4S2,2.1,2,1.9S2.1,1.3,2.5,1.3z M2.5,10.1C2.2,10.1,2,9.8,2,9.6C2,9.3,2.2,9,2.5,9S3,9.3,3,9.6
	C3,9.8,2.8,10.1,2.5,10.1z M8.8,6.6c-0.4,0-0.5-0.3-0.5-0.5c0-0.3,0.3-0.5,0.5-0.5c0.3,0,0.5,0.3,0.5,0.5C9.4,6.3,9.1,6.6,8.8,6.6z"
	/>
</svg>
