<?xml version="1.0" encoding="utf-8"?>
<!-- Generator: Adobe Illustrator 24.0.0, SVG Export Plug-In . SVG Version: 6.00 Build 0)  -->
<svg version="1.1" id="Layer_1" xmlns="http://www.w3.org/2000/svg" xmlns:xlink="http://www.w3.org/1999/xlink" x="0px" y="0px"
	 viewBox="0 0 11.3 11.3" style="enable-background:new 0 0 11.3 11.3;" xml:space="preserve">
<path fill="#3e4349" d="M9.5,5.1c0.1-0.2,0.1-0.4,0.1-0.6c0-0.9-0.8-1.7-1.7-1.7C7.6,2.8,7.3,2.9,7,3.1C6.5,2.3,5.6,1.7,4.5,1.7
	c-1.6,0-2.8,1.2-2.8,2.8c0,0.1,0,0.1,0,0.2C0.8,5,0,6,0,7.1c0,1.4,1.1,2.5,2.5,2.5h6.5c1.2,0,2.3-1,2.3-2.3
	C11.3,6.2,10.6,5.4,9.5,5.1z M7.5,6.8L6,8.3c0,0.1-0.1,0.2-0.3,0.2S5.4,8.4,5.4,8.4L3.8,6.8c-0.1-0.2-0.1-0.4,0-0.6
	C4,6,4.3,6,4.3,6.2l0.8,0.8V4.4c0-0.2,0.2-0.4,0.4-0.4S6,4.3,6,4.4v2.6l0.8-0.8C7,6,7.3,6,7.4,6.2C7.7,6.4,7.7,6.6,7.5,6.8z"/>
</svg>
