<?xml version="1.0" encoding="utf-8"?>
<!-- Generator: Adobe Illustrator 24.0.0, SVG Export Plug-In . SVG Version: 6.00 Build 0)  -->
<svg version="1.1" id="Layer_1" xmlns="http://www.w3.org/2000/svg" xmlns:xlink="http://www.w3.org/1999/xlink" x="0px" y="0px"
	 viewBox="0 0 11.3 11.3" style="enable-background:new 0 0 11.3 11.3;" xml:space="preserve">
<g transform="translate(-31)" fill="#3e4349">
	<g transform="translate(33.52)">
		<path d="M3.2,0c-1.7,0-3,1.3-3,3s1.3,3,3,3s3-1.3,3-3l0,0C6.2,1.4,4.8,0,3.2,0z"/>
	</g>
	<g transform="translate(31 8.401)">
		<path d="M9.4-0.5C8.6-1.2,7.5-1.7,6.3-1.7H5C3.9-1.7,2.7-1.2,2-0.5c-0.8,0.9-1.3,2-1.3,3.1c0,0.2,0.2,0.3,0.3,0.3l0,0h9.3
			c0.2,0,0.3-0.2,0.3-0.3l0,0C10.6,1.5,10.2,0.4,9.4-0.5z"/>
	</g>
</g>
</svg>
