<?xml version="1.0" encoding="utf-8"?>
<!-- Generator: Adobe Illustrator 24.0.0, SVG Export Plug-In . SVG Version: 6.00 Build 0)  -->
<svg version="1.1" id="Layer_1" xmlns="http://www.w3.org/2000/svg" xmlns:xlink="http://www.w3.org/1999/xlink" x="0px" y="0px"
	 viewBox="0 0 11.3 11.3" style="enable-background:new 0 0 11.3 11.3;" xml:space="preserve">
<style type="text/css">
	.st0{fill:#3E4349;}
</style>
<path class="st0" d="M7.9,3.2C7.3,2.6,6.5,2.3,5.6,2.3c-1.5,0-2.9,1.1-3.3,2.5C2.4,4.9,2.3,5,2.2,5H1C0.9,5,0.7,4.9,0.8,4.7
	c0.4-2.3,2.5-4,4.9-4c1.3,0,2.5,0.5,3.4,1.4l0.7-0.7c0.3-0.3,0.8-0.1,0.8,0.3v2.7c0,0.3-0.2,0.5-0.5,0.5H7.4C7,4.8,6.8,4.3,7.1,4
	L7.9,3.2z M1.2,6.5h2.7c0.4,0,0.6,0.5,0.3,0.8L3.4,8.1C4,8.7,4.8,9,5.7,9c1.5,0,2.9-1.1,3.3-2.5c0-0.1,0.1-0.2,0.2-0.2h1.1
	c0.2,0,0.3,0.1,0.2,0.3c-0.4,2.3-2.5,4-4.9,4c-1.3,0-2.5-0.5-3.4-1.4L1.5,10C1.2,10.3,0.7,10,0.7,9.6V6.9C0.7,6.7,0.9,6.5,1.2,6.5z"
	/>
</svg>
