<?xml version="1.0" encoding="utf-8"?>
<!-- Generator: Adobe Illustrator 24.0.0, SVG Export Plug-In . SVG Version: 6.00 Build 0)  -->
<svg version="1.1" id="Layer_1" xmlns="http://www.w3.org/2000/svg" xmlns:xlink="http://www.w3.org/1999/xlink" x="0px" y="0px"
	 viewBox="0 0 11.3 11.3" style="enable-background:new 0 0 11.3 11.3;" xml:space="preserve">
<path fill="#3e4349" d="M7.4,3.8H3.8v3.5h3.5V3.8z M6.2,6.2H4.9V4.9h1.2V6.2z M11.1,5V3.7H9.9V2.5c0-0.7-0.6-1.3-1.3-1.3H7.4V0H6.1v1.3H4.9V0H3.6
	v1.3H2.3c-0.7,0-1.3,0.6-1.3,1.3v1.3H0V5h1.3v1.3H0v1.3h1.3v1.3c0,0.7,0.6,1.3,1.3,1.3h1.3v1.3H5v-1.3h1.3v1.3h1.3v-1.3h1.3
	c0.7,0,1.3-0.6,1.3-1.3V7.6h1.3V6.3h-1.3V5L11.1,5L11.1,5z M8.6,8.6h-6v-6h5.9L8.6,8.6z"/>
</svg>
