<?xml version="1.0" encoding="utf-8"?>
<!-- Generator: Adobe Illustrator 24.0.0, SVG Export Plug-In . SVG Version: 6.00 Build 0)  -->
<svg version="1.1" id="Layer_1" xmlns="http://www.w3.org/2000/svg" xmlns:xlink="http://www.w3.org/1999/xlink" x="0px" y="0px"
	 viewBox="0 0 11.3 11.3" style="enable-background:new 0 0 11.3 11.3;" xml:space="preserve">
<style type="text/css">
	.st0{fill:#3E4349;}
</style>
<path class="st0" d="M2.7,9.3c0,0.1-0.1,0.2-0.2,0.2H2c-0.1,0-0.2-0.1-0.2-0.2v-7C1.8,2,2,1.8,2.3,1.8S2.7,2,2.7,2.3V9.3z M9,1.8
	c-0.1,0-0.2,0-0.3,0.1C8,2.1,7.5,2.3,7.1,2.3c-0.9,0-1.4-0.5-2.5-0.5C4.2,1.8,3.8,1.8,3.2,2v5.3c0.5-0.2,0.9-0.2,1.3-0.2
	c1.1,0,1.9,0.5,3,0.5c0.5,0,1-0.1,1.7-0.4C9.4,7.2,9.5,7,9.5,6.8V2.2C9.5,1.9,9.3,1.8,9,1.8z"/>
</svg>
