<?xml version="1.0" encoding="utf-8"?>
<!-- Generator: Adobe Illustrator 24.0.0, SVG Export Plug-In . SVG Version: 6.00 Build 0)  -->
<svg version="1.1" id="Layer_1" xmlns="http://www.w3.org/2000/svg" xmlns:xlink="http://www.w3.org/1999/xlink" x="0px" y="0px"
	 viewBox="0 0 11.3 11.3" style="enable-background:new 0 0 11.3 11.3;" xml:space="preserve">
<style type="text/css">
	.st0{fill:#3E4349;}
</style>
<path class="st0" d="M8,0.4H3.3C2.6,0.4,2,1,2,1.7v7.9c0,0.7,0.6,1.3,1.3,1.3H8c0.7,0,1.3-0.6,1.3-1.3V1.7C9.3,1,8.7,0.4,8,0.4z
	 M5.7,10.3C5.3,10.3,5,10,5,9.6c0-0.4,0.3-0.7,0.7-0.7s0.7,0.3,0.7,0.7C6.3,10,6,10.3,5.7,10.3z M8,1.7v6.6H3.3V1.7H8z"/>
</svg>
