<?xml version="1.0" encoding="utf-8"?>
<!-- Generator: Adobe Illustrator 24.0.0, SVG Export Plug-In . SVG Version: 6.00 Build 0)  -->
<svg version="1.1" id="Layer_1" xmlns="http://www.w3.org/2000/svg" xmlns:xlink="http://www.w3.org/1999/xlink" x="0px" y="0px"
	 viewBox="0 0 11.3 11.3" style="enable-background:new 0 0 11.3 11.3;" xml:space="preserve">
<g fill="#3e4349">
	<path d="M8.5,2.4c0.4,0,0.8-0.3,0.8-0.8l0,0V0.8c0-0.4-0.3-0.8-0.8-0.8C8-0.1,7.7,0.3,7.6,0.8c0,0,0,0,0,0.1v0.8
		C7.6,2.1,8,2.4,8.5,2.4L8.5,2.4z"/>
	<path d="M11.2,1.4H9.7v0.4C9.7,2.4,9.2,3,8.5,3C7.8,3,7.3,2.5,7.3,1.8V1.4H4.1v0.4C4.1,2.4,3.6,3,2.9,3S1.7,2.5,1.7,1.9V1.4H0.1
		v9.9h10.3h0.8L11.2,1.4z M10.4,10.6H0.9V4.2h9.5V10.6L10.4,10.6z"/>
	<path d="M2.9,2.4c0.4,0,0.8-0.3,0.8-0.8l0,0V0.8c0.1-0.4-0.3-0.8-0.7-0.8S2.2,0.4,2.1,0.8c0,0,0,0,0,0.1v0.8
		C2.1,2.1,2.5,2.4,2.9,2.4L2.9,2.4z"/>
	<rect x="4.1" y="5" width="1.3" height="1.1"/>
	<rect x="6.1" y="5" width="1.3" height="1.1"/>
	<rect x="8" y="5" width="1.3" height="1.1"/>
	<rect x="4.1" y="6.9" width="1.3" height="1.1"/>
	<rect x="6.1" y="6.9" width="1.3" height="1.1"/>
	<rect x="8" y="6.9" width="1.3" height="1.1"/>
	<rect x="4.1" y="8.7" width="1.3" height="1.1"/>
	<rect x="2.1" y="6.9" width="1.3" height="1.1"/>
	<rect x="2.1" y="8.7" width="1.3" height="1.1"/>
	<rect x="6.1" y="8.7" width="1.3" height="1.1"/>
	<rect x="8" y="8.7" width="1.3" height="1.1"/>
</g>
</svg>
